<?xml version="1.0" encoding="UTF-8" standalone="no"?>
<svg width="153px" height="160px" viewBox="0 0 153 160" version="1.1" xmlns="http://www.w3.org/2000/svg" xmlns:xlink="http://www.w3.org/1999/xlink">
    <!-- Generator: Sketch 3.8.1 (29687) - http://www.bohemiancoding.com/sketch -->
    <title>logo</title>
    <desc>Created with Sketch.</desc>
    <defs></defs>
    <g id="index" stroke="none" stroke-width="1" fill="none" fill-rule="evenodd">
        <g id="Desktop" transform="translate(-524.000000, -76.000000)">
            <g id="logo" transform="translate(524.000000, 76.000000)">
                <g id="wrap-logo" transform="translate(29.033714, 0.000000)">
                    <g id="bubble1" fill="#656D78">
                        <path d="M38.6947872,12.3737374 C26.0714676,12.3737374 23.4602659,26.036491 23.4602659,38.7340847 L15.8365714,60.3494086 C15.8365714,73.0493154 34.887647,83.0889405 47.5109666,83.0889405 L55.5999515,83.3459432 L70.8599618,98.5200631 C73.7889796,101.431832 76.1827668,100.421792 76.1827668,96.2813976 L76.1827668,82.8131663 C86.4529109,80.5559962 73.4500275,61.5826738 73.4500275,50.5736206 L62.4777622,44.4597468 C62.4777622,31.761382 78.2175737,13.6325576 65.5984685,13.6325576 L38.6947872,12.3737374 Z" id="Shape" transform="translate(47.984575, 56.279073) rotate(-12.000000) translate(-47.984575, -56.279073) "></path>
                        <path d="M46.5538777,0 C20.8430188,0 0,20.9745323 0,46.8426849 C0,72.7143975 20.8430188,93.6868687 46.5538777,93.6868687 C72.2638056,93.6868687 93.1068244,72.7142102 93.1068244,46.8426849 C93.1068244,20.9745323 72.2638056,0 46.5538777,0 L46.5538777,0 Z" id="Shape"></path>
                    </g>
                    <g id="font-wp" transform="translate(10.557714, 10.606061)" fill="#9B9B9B">
                        <path d="M0,36.130483 C0,50.3854006 8.23738691,62.7044399 20.1822452,68.5422266 L3.10034828,21.4739993 C1.11339977,25.9529023 0,30.9094362 0,36.130483 L0,36.130483 L0,36.130483 L0,36.130483 Z" id="Path"></path>
                        <path d="M60.3224693,34.1948074 C60.3224693,29.7440003 58.7327743,26.6616709 57.3693025,24.2625521 C55.5540656,21.2960327 53.8526216,18.783845 53.8526216,15.8173255 C53.8526216,12.5068022 56.3492538,9.42515799 59.8659346,9.42515799 C60.0246996,9.42515799 60.175288,9.44503072 60.3299647,9.45393913 C53.9589194,3.58394472 45.4707791,0 36.1479295,0 C23.6375132,0 12.630936,6.45521214 6.22786517,16.2325972 C7.06802543,16.257952 7.85980669,16.275769 8.53234377,16.275769 C12.2779734,16.275769 18.0759653,15.8186961 18.0759653,15.8186961 C20.006358,15.7042566 20.233944,18.5556512 18.3055955,18.7852155 C18.3055955,18.7852155 16.3656633,19.0147799 14.2070033,19.1285341 L27.2475451,58.1373401 L35.0842716,34.5004364 L29.5050074,19.1271636 C27.576659,19.0134094 25.7498384,18.783845 25.7498384,18.783845 C23.8201271,18.6700908 24.0463503,15.7028861 25.9760616,15.8173255 C25.9760616,15.8173255 31.8898908,16.2743984 35.4086157,16.2743984 C39.1535639,16.2743984 44.9522373,15.8173255 44.9522373,15.8173255 C46.8839926,15.7028861 47.1108973,18.5542807 45.1818674,18.783845 C45.1818674,18.783845 43.2378469,19.0134094 41.0832752,19.1271636 L54.0243333,57.8406196 L57.596207,45.8368031 C59.144337,40.8555996 60.3224693,37.2778222 60.3224693,34.1948074 L60.3224693,34.1948074 L60.3224693,34.1948074 L60.3224693,34.1948074 Z" id="Path"></path>
                        <path d="M36.5453957,39.3689986 L25.8011557,70.7672328 C29.0091645,71.7156415 32.4018313,72.2343886 35.9171493,72.2343886 C40.087288,72.2343886 44.0863966,71.5093767 47.8088587,70.1929789 C47.712782,70.0387937 47.6255634,69.8750154 47.5540169,69.6968458 L36.5453957,39.3689986 L36.5453957,39.3689986 L36.5453957,39.3689986 Z" id="Path"></path>
                        <path d="M67.6914756,18.7897493 C67.8454711,19.9368857 67.9326893,21.1683099 67.9326893,22.4929305 C67.9326893,26.1474577 67.2540199,30.2556315 65.2098338,35.3923905 L54.2713965,67.1976731 C64.9175155,60.9542083 72.0782981,49.3546991 72.0782981,36.0687487 C72.0789794,29.807467 70.4886024,23.9196557 67.6914756,18.7897493 L67.6914756,18.7897493 L67.6914756,18.7897493 L67.6914756,18.7897493 Z" id="Path"></path>
                    </g>
                </g>
                <g id="wrap-logo" transform="translate(29.913524, 0.000000)">
                    <path d="M48.1589639,108.732945 C53.0411748,98.8577983 61.6159378,81.3321953 64.4611154,78.5400006 C67.306293,75.7478059 72.1983115,69.0244691 73.5831412,67.098308 C74.9679708,65.1721469 80.209139,59.3818406 83.2602757,59.3818406 C86.3114123,59.3818406 88.5681354,53.9619878 91.3574098,54.137362 C94.1466842,54.3127363 99.4653322,57.2024706 100.772682,59.9838275 C102.080032,62.7651845 99.628138,70.4471682 99.8900003,73.5792736 C100.151863,76.7113791 94.2025874,96.9316371 92.9158335,100.774107 C91.6290796,104.616577 88.6554228,119.120422 87.1068067,124.616139 C85.5581905,130.111856 78.4408332,140.514111 76.0870151,143.053097 C73.7331971,145.592083 70.3338915,155.302693 70.0720292,159.299847 C69.810167,163.297001 71.5323772,167.480367 68.4047414,168.509952 C65.2771057,169.539536 64.2757523,159.631876 61.9641068,155.800244 C59.6524613,151.968612 51.8162087,150.609954 49.3093924,139.420485 C46.8025762,128.231016 43.2767529,118.608093 48.1589639,108.732945 Z" id="Path-86" fill="#DCDCDC" transform="translate(73.436993, 111.358859) rotate(27.000000) translate(-73.436993, -111.358859) "></path>
                    <g id="bubble1" fill="#00749A">
                        <path d="M37.8149777,12.3737374 C25.1916581,12.3737374 22.5804564,26.036491 22.5804564,38.7340847 L14.9567619,60.3494086 C14.9567619,73.0493154 34.0078375,83.0889405 46.6311571,83.0889405 L54.720142,83.3459432 L69.9801523,98.5200631 C72.9091701,101.431832 75.3029573,100.421792 75.3029573,96.2813976 L75.3029573,82.8131663 C85.5731013,80.5559962 72.570218,61.5826738 72.570218,50.5736206 L61.5979527,44.4597468 C61.5979527,31.761382 77.3377641,13.6325576 64.718659,13.6325576 L37.8149777,12.3737374 Z" id="Shape" transform="translate(47.104766, 56.279073) rotate(-12.000000) translate(-47.104766, -56.279073) "></path>
                        <path d="M46.5538777,0 C20.8430188,0 0,20.9745323 0,46.8426849 C0,72.7143975 20.8430188,93.6868687 46.5538777,93.6868687 C72.2638056,93.6868687 93.1068244,72.7142102 93.1068244,46.8426849 C93.1068244,20.9745323 72.2638056,0 46.5538777,0 L46.5538777,0 Z" id="Shape"></path>
                    </g>
                    <g id="font-wp" transform="translate(9.677905, 10.606061)" fill="#FFFFFF">
                        <path d="M0,36.130483 C0,50.3854006 8.23738691,62.7044399 20.1822452,68.5422266 L3.10034828,21.4739993 C1.11339977,25.9529023 0,30.9094362 0,36.130483 L0,36.130483 L0,36.130483 L0,36.130483 Z" id="Path"></path>
                        <path d="M60.3224693,34.1948074 C60.3224693,29.7440003 58.7327743,26.6616709 57.3693025,24.2625521 C55.5540656,21.2960327 53.8526216,18.783845 53.8526216,15.8173255 C53.8526216,12.5068022 56.3492538,9.42515799 59.8659346,9.42515799 C60.0246996,9.42515799 60.175288,9.44503072 60.3299647,9.45393913 C53.9589194,3.58394472 45.4707791,0 36.1479295,0 C23.6375132,0 12.630936,6.45521214 6.22786517,16.2325972 C7.06802543,16.257952 7.85980669,16.275769 8.53234377,16.275769 C12.2779734,16.275769 18.0759653,15.8186961 18.0759653,15.8186961 C20.006358,15.7042566 20.233944,18.5556512 18.3055955,18.7852155 C18.3055955,18.7852155 16.3656633,19.0147799 14.2070033,19.1285341 L27.2475451,58.1373401 L35.0842716,34.5004364 L29.5050074,19.1271636 C27.576659,19.0134094 25.7498384,18.783845 25.7498384,18.783845 C23.8201271,18.6700908 24.0463503,15.7028861 25.9760616,15.8173255 C25.9760616,15.8173255 31.8898908,16.2743984 35.4086157,16.2743984 C39.1535639,16.2743984 44.9522373,15.8173255 44.9522373,15.8173255 C46.8839926,15.7028861 47.1108973,18.5542807 45.1818674,18.783845 C45.1818674,18.783845 43.2378469,19.0134094 41.0832752,19.1271636 L54.0243333,57.8406196 L57.596207,45.8368031 C59.144337,40.8555996 60.3224693,37.2778222 60.3224693,34.1948074 L60.3224693,34.1948074 L60.3224693,34.1948074 L60.3224693,34.1948074 Z" id="Path"></path>
                        <path d="M36.5453957,39.3689986 L25.8011557,70.7672328 C29.0091645,71.7156415 32.4018313,72.2343886 35.9171493,72.2343886 C40.087288,72.2343886 44.0863966,71.5093767 47.8088587,70.1929789 C47.712782,70.0387937 47.6255634,69.8750154 47.5540169,69.6968458 L36.5453957,39.3689986 L36.5453957,39.3689986 L36.5453957,39.3689986 Z" id="Path"></path>
                        <path d="M67.6914756,18.7897493 C67.8454711,19.9368857 67.9326893,21.1683099 67.9326893,22.4929305 C67.9326893,26.1474577 67.2540199,30.2556315 65.2098338,35.3923905 L54.2713965,67.1976731 C64.9175155,60.9542083 72.0782981,49.3546991 72.0782981,36.0687487 C72.0789794,29.807467 70.4886024,23.9196557 67.6914756,18.7897493 L67.6914756,18.7897493 L67.6914756,18.7897493 L67.6914756,18.7897493 Z" id="Path"></path>
                    </g>
                </g>
                <g id="wordpress" transform="translate(0.000000, 101.641414)">
                    <path d="M68.7065346,4.5840999 L60.8807949,4.5840999 L60.8807949,5.41993119 C63.3286166,5.41993119 63.7221677,5.9481172 63.7221677,9.07349609 L63.7221677,14.7078513 C63.7221677,17.8328595 63.3289847,18.4051537 60.8807949,18.4051537 C59.0013955,18.141246 57.7331229,17.1286114 55.9844161,15.1919292 L53.9735871,12.9913393 C56.6838988,12.5065201 58.1263059,10.7903787 58.1263059,8.85332589 C58.1263059,6.43293643 56.0720354,4.5840999 52.2245122,4.5840999 L44.5302017,4.5840999 L44.5302017,5.41993119 C46.978023,5.41993119 47.3715745,5.9481172 47.3715745,9.07349609 L47.3715745,14.7078513 C47.3715745,17.8328595 46.978023,18.4051537 44.5302017,18.4051537 L44.5302017,19.2413557 L53.2299263,19.2413557 L53.2299263,18.4051537 C50.782105,18.4051537 50.3885535,17.8328595 50.3885535,14.7078513 L50.3885535,13.1236638 L51.1314785,13.1236638 L55.9844161,19.2413557 L68.7065346,19.2413557 C74.9580695,19.2413557 77.6687493,15.8965479 77.6687493,11.8904883 C77.6687493,7.88517011 74.958438,4.5840999 68.7065346,4.5840999 L68.7065346,4.5840999 L68.7065346,4.5840999 L68.7065346,4.5840999 Z M50.388922,11.7581639 L50.388922,5.90475037 L52.1810703,5.90475037 C54.1480897,5.90475037 55.0228108,7.26913835 55.0228108,8.85369653 C55.0228108,10.3945172 54.1480897,11.7585345 52.1810703,11.7585345 L50.388922,11.7585345 L50.388922,11.7581639 L50.388922,11.7581639 L50.388922,11.7581639 Z M68.8379639,17.8769677 L68.5316639,17.8769677 C66.9581956,17.8769677 66.7395152,17.4811061 66.7395152,15.4562076 L66.7395152,5.90475037 L68.8379639,5.90475037 C73.3846016,5.90475037 74.2147772,9.24955809 74.2147772,11.8467508 C74.2147772,14.5314186 73.3842339,17.8769677 68.8379639,17.8769677 L68.8379639,17.8769677 L68.8379639,17.8769677 L68.8379639,17.8769677 Z M20.1801023,13.3875715 L23.1967136,4.40766722 C24.0714355,1.81084512 23.6778843,1.06285954 20.8799534,1.06285954 L20.8799534,0.182178787 L29.0988758,0.182178787 L29.0988758,1.06285954 C26.3447541,1.06285954 25.6890811,1.72299941 24.5960473,4.93622396 L19.6116804,19.9897119 L19.0436271,19.9897119 L14.583872,6.21239559 L10.0376024,19.9897119 L9.46918095,19.9897119 L4.61661099,4.93622396 C3.56738685,1.72299941 2.86790422,1.06285954 0.332094811,1.06285954 L0.332094811,0.182178787 L10.0376024,0.182178787 L10.0376024,1.06285954 C7.45798381,1.06285954 6.7581327,1.67889126 7.67666418,4.40766722 L10.6056558,13.3875715 L15.0212328,0.182178787 L15.852145,0.182178787 L20.1801023,13.3875715 L20.1801023,13.3875715 L20.1801023,13.3875715 Z M35.0437429,19.8132792 C30.234983,19.8132792 26.3002083,16.2483014 26.3002083,11.8901177 C26.3002083,7.57678357 30.2353511,4.01106438 35.0437429,4.01106438 C39.852871,4.01106438 43.7872776,7.57678357 43.7872776,11.8901177 C43.7872776,16.2483014 39.852871,19.8132792 35.0437429,19.8132792 L35.0437429,19.8132792 L35.0437429,19.8132792 L35.0437429,19.8132792 Z M35.0437429,5.37656431 C31.0220848,5.37656431 29.6227515,9.02938789 29.6227515,11.8904883 C29.6227515,14.7960677 31.0220848,18.4051537 35.0437429,18.4051537 C39.1099468,18.4051537 40.5089121,14.7960677 40.5089121,11.8904883 C40.5089121,9.02938789 39.1099468,5.37656431 35.0437429,5.37656431 L35.0437429,5.37656431 L35.0437429,5.37656431 L35.0437429,5.37656431 Z" id="Shape" fill="#00749A"></path>
                    <path d="M88.4665541,18.3610455 L88.4665541,19.2413557 L78.4551153,19.2413557 L78.4551153,18.3610455 C81.3844755,18.3610455 81.9090873,17.61306 81.9090873,13.2107682 L81.9090873,6.16865808 C81.9090873,1.76636629 81.3844755,1.06248886 78.4551153,1.06248886 L78.4551153,0.181808148 L87.5045815,0.181808148 C92.0074099,0.181808148 94.5001451,2.51472254 94.5001451,5.64047202 C94.5001451,8.67763452 92.0074099,11.0542864 87.5045815,11.0542864 L85.012582,11.0542864 L85.012582,13.2103975 C85.012582,17.61306 85.5371939,18.3610455 88.4665541,18.3610455 L88.4665541,18.3610455 L88.4665541,18.3610455 L88.4665541,18.3610455 Z M87.5045815,1.76636629 L85.012582,1.76636629 L85.012582,9.4256201 L87.5045815,9.4256201 C89.9531393,9.4256201 91.0896146,7.70910807 91.0896146,5.64047202 C91.0896146,3.52772779 89.9531393,1.76636629 87.5045815,1.76636629 L87.5045815,1.76636629 L87.5045815,1.76636629 L87.5045815,1.76636629 Z M124.533726,15.1040835 L124.315046,15.8961773 C123.921863,17.3487816 123.440324,17.8769677 120.336461,17.8769677 L119.72423,17.8769677 C117.451279,17.8769677 117.057728,17.3487816 117.057728,14.2237735 L117.057728,12.1992456 C120.467891,12.1992456 120.730381,12.5068907 120.730381,14.7960677 L121.560924,14.7960677 L121.560924,8.23729413 L120.730381,8.23729413 C120.730381,10.5261004 120.467891,10.8341163 117.057728,10.8341163 L117.057728,5.90475037 L119.46174,5.90475037 C122.566339,5.90475037 123.046773,6.43293643 123.440324,7.88554075 L123.659373,8.72137203 L124.358487,8.72137203 L124.052924,4.5840999 L111.199376,4.5840999 L111.199376,5.41993119 C113.647197,5.41993119 114.041116,5.9481172 114.041116,9.07349609 L114.041116,14.7078513 C114.041116,17.5667278 113.706837,18.2869142 111.776633,18.3895861 C109.942148,18.1075162 108.68271,17.1000708 106.959406,15.1919292 L104.948209,12.9913393 C107.658889,12.5065201 109.101664,10.7903787 109.101664,8.85332589 C109.101664,6.43293643 107.047025,4.5840999 103.19987,4.5840999 L95.50556,4.5840999 L95.50556,5.41993119 C97.9533813,5.41993119 98.3469321,5.9481172 98.3469321,9.07349609 L98.3469321,14.7078513 C98.3469321,17.8328595 97.9537498,18.4051537 95.50556,18.4051537 L95.50556,19.2413557 L104.205653,19.2413557 L104.205653,18.4051537 C101.757831,18.4051537 101.363912,17.8328595 101.363912,14.7078513 L101.363912,13.1236638 L102.107204,13.1236638 L106.959774,19.2413557 L124.927645,19.2413557 L125.190135,15.1044542 L124.533726,15.1044542 L124.533726,15.1040835 L124.533726,15.1040835 L124.533726,15.1040835 Z M101.363544,11.7581639 L101.363544,5.90475037 L103.155692,5.90475037 C105.12308,5.90475037 105.997801,7.26913835 105.997801,8.85369653 C105.997801,10.3945172 105.12308,11.7585345 103.155692,11.7585345 L101.363544,11.7585345 L101.363544,11.7581639 L101.363544,11.7581639 L101.363544,11.7581639 Z M133.408321,19.8132792 C131.659615,19.8132792 130.12922,18.8892316 129.473547,18.3165667 C129.254867,18.5371076 128.861684,19.1972475 128.774432,19.8132792 L127.943521,19.8132792 L127.943521,13.7396956 L128.817874,13.7396956 C129.167984,16.6445336 131.178444,18.3610455 133.758063,18.3610455 C135.157028,18.3610455 136.293872,17.5689518 136.293872,16.248672 C136.293872,15.1044542 135.288458,14.2237735 133.495941,13.3875715 L131.003942,12.1992456 C129.254867,11.3623023 127.943521,9.90969801 127.943521,7.97338642 C127.943521,5.86064222 129.910908,4.05628448 132.621588,4.05628448 C134.064362,4.05628448 135.288089,4.58447054 136.03175,5.20050231 C136.250062,5.0244403 136.468743,4.53999175 136.600172,4.01143502 L137.430716,4.01143502 L137.430716,9.20582058 L136.512552,9.20582058 C136.206253,7.13681386 135.069777,5.42030186 132.753017,5.42030186 C131.528922,5.42030186 130.39171,6.12454993 130.39171,7.22540084 C130.39171,8.36961862 131.309873,8.98565038 133.408689,9.9541768 L135.812701,11.1425028 C137.911518,12.1547667 138.741693,13.7841743 138.741693,15.1044542 C138.741693,17.8769677 136.337314,19.8132792 133.408321,19.8132792 L133.408321,19.8132792 L133.408321,19.8132792 L133.408321,19.8132792 Z M146.873365,19.8132792 C145.12429,19.8132792 143.593895,18.8892316 142.93859,18.3165667 C142.719909,18.5371076 142.326727,19.1972475 142.239476,19.8132792 L141.408563,19.8132792 L141.408563,13.7396956 L142.282917,13.7396956 C142.632659,16.6445336 144.643487,18.3610455 147.223106,18.3610455 C148.622072,18.3610455 149.758915,17.5689518 149.758915,16.248672 C149.758915,15.1044542 148.7535,14.2237735 146.960616,13.3875715 L144.468617,12.1992456 C142.719909,11.3623023 141.408195,9.90969801 141.408195,7.97338642 C141.408195,5.86064222 143.375583,4.05628448 146.086263,4.05628448 C147.529037,4.05628448 148.752764,4.58447054 149.496425,5.20050231 C149.714737,5.0244403 149.933418,4.53999175 150.06411,4.01143502 L150.895022,4.01143502 L150.895022,9.20582058 L149.977227,9.20582058 C149.670927,7.13681386 148.534452,5.42030186 146.217692,5.42030186 C144.993596,5.42030186 143.856385,6.12454993 143.856385,7.22540084 C143.856385,8.36961862 144.774548,8.98565038 146.873365,9.9541768 L149.277376,11.1425028 C151.376193,12.1547667 152.206369,13.7841743 152.206369,15.1044542 C152.206369,17.8769677 149.801989,19.8132792 146.873365,19.8132792 L146.873365,19.8132792 L146.873365,19.8132792 L146.873365,19.8132792 Z" id="Shape" fill="#464342"></path>
                </g>
                <text id="Taiwan-正體中文社團" font-family="PingFangTC-Regular, PingFang TC" font-size="12.2879012" font-weight="normal" fill="#10131A">
                    <tspan x="16.8758399" y="137.621212">Taiwan 正體中文社團</tspan>
                </text>
            </g>
        </g>
    </g>
</svg>