<?xml version="1.0" encoding="UTF-8" standalone="no"?>
<svg width="13px" height="13px" viewBox="0 0 13 13" version="1.1" xmlns="http://www.w3.org/2000/svg" xmlns:xlink="http://www.w3.org/1999/xlink">
    <!-- Generator: Sketch 3.8.2 (29753) - http://www.bohemiancoding.com/sketch -->
    <title>1462550297_open</title>
    <desc>Created with Sketch.</desc>
    <defs></defs>
    <g id="single" stroke="none" stroke-width="1" fill="none" fill-rule="evenodd">
        <g id="Desktop" transform="translate(-435.000000, -494.000000)" fill="#F62600">
            <g id="1462550297_open" transform="translate(435.000000, 494.000000)">
                <g id="open">
                    <path d="M12.4090909,6.5 C12.0827614,6.5 11.8181818,6.76457955 11.8181818,7.09090909 L11.8181818,11.2272727 C11.8181818,11.55375 11.55375,11.8181818 11.2272727,11.8181818 L1.77272727,11.8181818 C1.44625,11.8181818 1.18181818,11.55375 1.18181818,11.2272727 L1.18181818,1.77272727 C1.18181818,1.44625 1.44625,1.18181818 1.77272727,1.18181818 L5.90909091,1.18181818 C6.23542045,1.18181818 6.5,0.917238636 6.5,0.590909091 C6.5,0.264579545 6.23542045,0 5.90909091,0 L1.77272727,0 C0.793738636,0 0,0.793738636 0,1.77272727 L0,11.2272727 C0,12.2062614 0.793738636,13 1.77272727,13 L11.2272727,13 C12.2062614,13 13,12.2062614 13,11.2272727 L13,7.09090909 C13,6.76457955 12.7354205,6.5 12.4090909,6.5 L12.4090909,6.5 Z" id="Shape"></path>
                    <path d="M12.9994091,0.584704545 C12.9989659,0.547920455 12.9955682,0.511136364 12.9883295,0.475090909 C12.9849318,0.458545455 12.9787273,0.443181818 12.974,0.427079545 C12.9680909,0.406102273 12.9630682,0.384977273 12.9546477,0.364590909 C12.9472614,0.346568182 12.9369205,0.330465909 12.9277614,0.313477273 C12.9186023,0.296488636 12.9110682,0.278909091 12.9001364,0.262659091 C12.8824091,0.236215909 12.8615795,0.212136364 12.8400114,0.188943182 C12.8352841,0.183772727 12.8318864,0.177863636 12.8268636,0.172988636 C12.8222841,0.168409091 12.8169659,0.165454545 12.8120909,0.161022727 C12.7886023,0.138863636 12.7639318,0.117738636 12.7368977,0.0995681818 C12.7209432,0.0889318182 12.7035114,0.0813977273 12.6868182,0.0723863636 C12.6696818,0.0632272727 12.6531364,0.0527386364 12.6351136,0.0452045455 C12.6145795,0.0366363636 12.5933068,0.0317613636 12.5720341,0.0257045455 C12.5562273,0.021125 12.5410114,0.0149204545 12.5246136,0.0116704545 C12.4866477,0.00398863636 12.4477955,0 12.4089432,0 L8.86363636,0 C8.53730682,0 8.27272727,0.264579545 8.27272727,0.590909091 C8.27272727,0.917238636 8.53730682,1.18181818 8.86363636,1.18181818 L10.9824886,1.18181818 L6.14146591,6.02284091 C5.91071591,6.25359091 5.91071591,6.62778409 6.14146591,6.85838636 C6.37221591,7.08913636 6.74640909,7.08913636 6.97701136,6.85838636 L11.8181818,2.01736364 L11.8181818,4.13636364 C11.8181818,4.46269318 12.0827614,4.72727273 12.4090909,4.72727273 C12.7354205,4.72727273 13,4.46269318 13,4.13636364 L13,0.590909091 C13,0.588840909 12.9994091,0.586920455 12.9994091,0.584704545 L12.9994091,0.584704545 Z" id="Shape"></path>
                </g>
            </g>
        </g>
    </g>
</svg>