<?xml version="1.0" encoding="UTF-8" standalone="no"?>
<svg width="37px" height="37px" viewBox="0 0 37 37" version="1.1" xmlns="http://www.w3.org/2000/svg" xmlns:xlink="http://www.w3.org/1999/xlink">
    <!-- Generator: Sketch 3.8.3 (29802) - http://www.bohemiancoding.com/sketch -->
    <title>1462550297_open</title>
    <desc>Created with Sketch.</desc>
    <defs></defs>
    <g id="single" stroke="none" stroke-width="1" fill="none" fill-rule="evenodd">
        <g id="Desktop" transform="translate(-1059.000000, -290.000000)" fill="#F62600">
            <g id="1462550297_open" transform="translate(1059.000000, 290.000000)">
                <g id="open">
                    <path d="M35.3181818,18.5 C34.3893977,18.5 33.6363636,19.2530341 33.6363636,20.1818182 L33.6363636,31.9545455 C33.6363636,32.88375 32.88375,33.6363636 31.9545455,33.6363636 L5.04545455,33.6363636 C4.11625,33.6363636 3.36363636,32.88375 3.36363636,31.9545455 L3.36363636,5.04545455 C3.36363636,4.11625 4.11625,3.36363636 5.04545455,3.36363636 L16.8181818,3.36363636 C17.7469659,3.36363636 18.5,2.61060227 18.5,1.68181818 C18.5,0.753034091 17.7469659,0 16.8181818,0 L5.04545455,0 C2.25910227,0 0,2.25910227 0,5.04545455 L0,31.9545455 C0,34.7408977 2.25910227,37 5.04545455,37 L31.9545455,37 C34.7408977,37 37,34.7408977 37,31.9545455 L37,20.1818182 C37,19.2530341 36.2469659,18.5 35.3181818,18.5 L35.3181818,18.5 Z" id="Shape"></path>
                    <path d="M36.9983182,1.66415909 C36.9970568,1.55946591 36.9873864,1.45477273 36.9667841,1.35218182 C36.9571136,1.30509091 36.9394545,1.26136364 36.926,1.21553409 C36.9091818,1.15582955 36.8948864,1.09570455 36.8709205,1.03768182 C36.8498977,0.986386364 36.8204659,0.940556818 36.7943977,0.892204545 C36.7683295,0.843852273 36.7468864,0.793818182 36.7157727,0.747568182 C36.6653182,0.672306818 36.6060341,0.603772727 36.5446477,0.537761364 C36.5311932,0.523045455 36.5215227,0.506227273 36.5072273,0.492352273 C36.4941932,0.479318182 36.4790568,0.470909091 36.4651818,0.458295455 C36.3983295,0.395227273 36.3281136,0.335102273 36.2511705,0.283386364 C36.2057614,0.253113636 36.1561477,0.231670455 36.1086364,0.206022727 C36.0598636,0.179954545 36.0127727,0.150102273 35.9614773,0.128659091 C35.9030341,0.104272727 35.8424886,0.0903977273 35.7819432,0.0731590909 C35.7369545,0.060125 35.6936477,0.0424659091 35.6469773,0.0332159091 C35.5389205,0.0113522727 35.4283409,0 35.3177614,0 L25.2272727,0 C24.2984886,0 23.5454545,0.753034091 23.5454545,1.68181818 C23.5454545,2.61060227 24.2984886,3.36363636 25.2272727,3.36363636 L31.2578523,3.36363636 L17.4795568,17.1419318 C16.8228068,17.7986818 16.8228068,18.8636932 17.4795568,19.5200227 C18.1363068,20.1767727 19.2013182,20.1767727 19.8576477,19.5200227 L33.6363636,5.74172727 L33.6363636,11.7727273 C33.6363636,12.7015114 34.3893977,13.4545455 35.3181818,13.4545455 C36.2469659,13.4545455 37,12.7015114 37,11.7727273 L37,1.68181818 C37,1.67593182 36.9983182,1.67046591 36.9983182,1.66415909 L36.9983182,1.66415909 Z" id="Shape"></path>
                </g>
            </g>
        </g>
    </g>
</svg>