<?xml version="1.0" encoding="UTF-8" standalone="no"?>
<svg width="194px" height="83px" viewBox="0 0 194 83" version="1.1" xmlns="http://www.w3.org/2000/svg" xmlns:xlink="http://www.w3.org/1999/xlink">
    <!-- Generator: Sketch 3.7.2 (28276) - http://www.bohemiancoding.com/sketch -->
    <title>logo</title>
    <desc>Created with Sketch.</desc>
    <defs></defs>
    <g id="single" stroke="none" stroke-width="1" fill="none" fill-rule="evenodd">
        <g id="Desktop" transform="translate(-161.000000, -10.000000)">
            <g id="header" transform="translate(161.000000, 10.000000)">
                <g id="logo">
                    <path d="M27.5468955,54.7099236 C30.160809,49.3914515 34.751698,39.9526625 36.2749931,38.4488662 C37.7982882,36.9450699 40.4174526,33.3240728 41.158884,32.2866975 C41.9003155,31.2493221 44.7064131,28.1308286 46.3399777,28.1308286 C47.9735424,28.1308286 49.1817816,25.2118507 50.6751464,25.3063023 C52.1685112,25.4007538 55.0160911,26.9570822 55.7160402,28.4550416 C56.4159893,29.9530009 55.1032566,34.0902979 55.2434564,35.7771604 C55.3836563,37.4640229 52.1984415,48.3540762 51.5095193,50.4235206 C50.8205972,52.492965 49.2285149,60.3043217 48.3993929,63.2641579 C47.5702709,66.223994 43.7596702,71.8263515 42.4994467,73.1937767 C41.2392233,74.5612019 39.4192506,79.7910593 39.2790507,81.9438121 C39.1388509,84.096565 40.0609144,86.3496062 38.3863924,86.9041112 C36.7118705,87.4586162 36.1757505,82.1226334 34.938106,80.0590258 C33.7004616,77.9954183 29.5049677,77.263684 28.1628297,71.2373557 C26.8206917,65.2110275 24.932982,60.0283958 27.5468955,54.7099236 Z" id="Path-86" fill="#D8D8D8" transform="translate(41.080637, 56.124165) rotate(27.000000) translate(-41.080637, -56.124165) "></path>
                    <g id="wordpress" transform="translate(52.910482, 25.187500)">
                        <path d="M63.5678832,4.21409755 L56.3274408,4.21409755 L56.3274408,4.98246531 C58.5921867,4.98246531 58.9563036,5.46801917 58.9563036,8.34113533 L58.9563036,13.5207176 C58.9563036,16.393493 58.5925273,16.9195949 56.3274408,16.9195949 C54.5886041,16.6769883 53.4151873,15.7460878 51.7972686,13.9657235 L49.936832,11.9427527 C52.444436,11.4970653 53.7789636,9.91944101 53.7789636,8.13873601 C53.7789636,5.91370656 51.8783346,4.21409755 48.3185728,4.21409755 L41.1997298,4.21409755 L41.1997298,4.98246531 C43.4644754,4.98246531 43.8285927,5.46801917 43.8285927,8.34113533 L43.8285927,13.5207176 C43.8285927,16.393493 43.4644754,16.9195949 41.1997298,16.9195949 L41.1997298,17.6883034 L49.2487907,17.6883034 L49.2487907,16.9195949 C46.9840451,16.9195949 46.6199278,16.393493 46.6199278,13.5207176 L46.6199278,12.0643967 L47.3072884,12.0643967 L51.7972686,17.6883034 L63.5678832,17.6883034 C69.3518576,17.6883034 71.8598021,14.6134694 71.8598021,10.9307561 C71.8598021,7.24872424 69.3521985,4.21409755 63.5678832,4.21409755 L63.5678832,4.21409755 L63.5678832,4.21409755 L63.5678832,4.21409755 Z M46.6202688,10.8091121 L46.6202688,5.42815266 L48.2783799,5.42815266 C50.0982834,5.42815266 50.907583,6.68241504 50.907583,8.13907674 C50.907583,9.55553116 50.0982834,10.8094528 48.2783799,10.8094528 L46.6202688,10.8094528 L46.6202688,10.8091121 L46.6202688,10.8091121 L46.6202688,10.8091121 Z M63.6894827,16.434041 L63.4060913,16.434041 C61.9503047,16.434041 61.7479798,16.0701311 61.7479798,14.2086708 L61.7479798,5.42815266 L63.6894827,5.42815266 C67.8960714,5.42815266 68.6641572,8.50298662 68.6641572,10.8905488 C68.6641572,13.3585256 67.8957312,16.434041 63.6894827,16.434041 L63.6894827,16.434041 L63.6894827,16.434041 L63.6894827,16.434041 Z M18.6708061,12.3070032 L21.4618011,4.05190551 C22.2711014,1.66468405 21.9069845,0.977071589 19.3183145,0.977071589 L19.3183145,0.167474356 L26.9225329,0.167474356 L26.9225329,0.977071589 C24.3743956,0.977071589 23.7677612,1.58392875 22.7564769,4.53780017 L18.1448973,18.3762566 L17.6193293,18.3762566 L13.4931252,5.71096652 L9.28687705,18.3762566 L8.76096855,18.3762566 L4.27132863,4.53780017 C3.30057733,1.58392875 2.65340992,0.977071589 0.307257006,0.977071589 L0.307257006,0.167474356 L9.28687705,0.167474356 L9.28687705,0.977071589 C6.90019146,0.977071589 6.25268313,1.54338075 7.10251644,4.05190551 L9.812445,12.3070032 L13.8977752,0.167474356 L14.6665424,0.167474356 L18.6708061,12.3070032 L18.6708061,12.3070032 L18.6708061,12.3070032 Z M32.4227757,18.2140645 C27.9736691,18.2140645 24.3331814,14.9368313 24.3331814,10.9304153 C24.3331814,6.9652289 27.9740097,3.68731418 32.4227757,3.68731418 C36.8722228,3.68731418 40.5123699,6.9652289 40.5123699,10.9304153 C40.5123699,14.9368313 36.8722228,18.2140645 32.4227757,18.2140645 L32.4227757,18.2140645 L32.4227757,18.2140645 L32.4227757,18.2140645 Z M32.4227757,4.94259876 C28.7019026,4.94259876 27.4072272,8.3005873 27.4072272,10.9307561 C27.4072272,13.6018136 28.7019026,16.9195949 32.4227757,16.9195949 C36.1848629,16.9195949 37.4791977,13.6018136 37.4791977,10.9307561 C37.4791977,8.3005873 36.1848629,4.94259876 32.4227757,4.94259876 L32.4227757,4.94259876 L32.4227757,4.94259876 L32.4227757,4.94259876 Z" id="Shape" fill="#00749A"></path>
                        <path d="M81.850025,16.8790469 L81.850025,17.6883034 L72.5873548,17.6883034 L72.5873548,16.8790469 C75.2976243,16.8790469 75.7829998,16.1914344 75.7829998,12.1444705 L75.7829998,5.67075925 C75.7829998,1.62379529 75.2976243,0.97673083 72.5873548,0.97673083 L72.5873548,0.167133633 L80.9599996,0.167133633 C85.1260556,0.167133633 87.4323559,2.31174851 87.4323559,5.18520535 C87.4323559,7.97722545 85.1260556,10.1620476 80.9599996,10.1620476 L78.6543801,10.1620476 L78.6543801,12.1441297 C78.6543801,16.1914344 79.1397555,16.8790469 81.850025,16.8790469 L81.850025,16.8790469 L81.850025,16.8790469 L81.850025,16.8790469 Z M80.9599996,1.62379529 L78.6543801,1.62379529 L78.6543801,8.6648379 L80.9599996,8.6648379 C83.2254266,8.6648379 84.2769034,7.08687292 84.2769034,5.18520535 C84.2769034,3.24298976 83.2254266,1.62379529 80.9599996,1.62379529 L80.9599996,1.62379529 L80.9599996,1.62379529 L80.9599996,1.62379529 Z M115.219686,13.8849682 L115.017361,14.6131287 C114.653585,15.9484871 114.208061,16.434041 111.33634,16.434041 L110.769898,16.434041 C108.666945,16.434041 108.302827,15.9484871 108.302827,13.0757117 L108.302827,11.2145922 C111.45794,11.2145922 111.700798,11.497406 111.700798,13.6018136 L112.469224,13.6018136 L112.469224,7.57242681 L111.700798,7.57242681 C111.700798,9.6764937 111.45794,9.95964831 108.302827,9.95964831 L108.302827,5.42815266 L110.52704,5.42815266 C113.399442,5.42815266 113.843944,5.91370656 114.208061,7.24906496 L114.410727,8.01743272 L115.057554,8.01743272 L114.774844,4.21409755 L102.882629,4.21409755 L102.882629,4.98246531 C105.147375,4.98246531 105.511832,5.46801917 105.511832,8.34113533 L105.511832,13.5207176 C105.511832,16.1488419 105.202554,16.810899 103.416713,16.9052838 C101.719431,16.645981 100.554189,15.7198508 98.9597724,13.9657235 L97.0989953,11.9427527 C99.6069398,11.4970653 100.941808,9.91944101 100.941808,8.13873601 C100.941808,5.91370656 99.0408384,4.21409755 95.4814171,4.21409755 L88.3625745,4.21409755 L88.3625745,4.98246531 C90.6273201,4.98246531 90.9914366,5.46801917 90.9914366,8.34113533 L90.9914366,13.5207176 C90.9914366,16.393493 90.627661,16.9195949 88.3625745,16.9195949 L88.3625745,17.6883034 L96.411976,17.6883034 L96.411976,16.9195949 C94.14723,16.9195949 93.7827726,16.393493 93.7827726,13.5207176 L93.7827726,12.0643967 L94.4704734,12.0643967 L98.9601129,17.6883034 L115.584144,17.6883034 L115.827002,13.8853089 L115.219686,13.8853089 L115.219686,13.8849682 L115.219686,13.8849682 L115.219686,13.8849682 Z M93.782432,10.8091121 L93.782432,5.42815266 L95.4405432,5.42815266 C97.2607872,5.42815266 98.0700875,6.68241504 98.0700875,8.13907674 C98.0700875,9.55553116 97.2607872,10.8094528 95.4405432,10.8094528 L93.782432,10.8094528 L93.782432,10.8091121 L93.782432,10.8091121 L93.782432,10.8091121 Z M123.430539,18.2140645 C121.81262,18.2140645 120.396686,17.3646008 119.790051,16.8381581 C119.587726,17.0408982 119.22395,17.6477554 119.143224,18.2140645 L118.374458,18.2140645 L118.374458,12.6307058 L119.183417,12.6307058 C119.507342,15.3010819 121.367437,16.8790469 123.754123,16.8790469 C125.048458,16.8790469 126.100275,16.1508864 126.100275,14.937172 C126.100275,13.8853089 125.170057,13.0757117 123.511605,12.3070032 L121.205986,11.2145922 C119.587726,10.4452022 118.374458,9.10984381 118.374458,7.32982023 C118.374458,5.38760467 120.194701,3.72888438 122.702646,3.72888438 C124.037514,3.72888438 125.169716,4.21443828 125.857758,4.78074748 C126.059742,4.61889619 126.262067,4.17354956 126.383667,3.6876549 L127.152093,3.6876549 L127.152093,8.46277935 L126.3026,8.46277935 C126.019209,6.56077102 124.967732,4.98280607 122.824245,4.98280607 C121.691702,4.98280607 120.639544,5.63021126 120.639544,6.64220777 C120.639544,7.69407083 121.489037,8.26038003 123.430879,9.15073253 L125.655092,10.2431436 C127.596935,11.1737034 128.365021,12.6715946 128.365021,13.8853089 C128.365021,16.434041 126.140468,18.2140645 123.430539,18.2140645 L123.430539,18.2140645 L123.430539,18.2140645 L123.430539,18.2140645 Z M135.888514,18.2140645 C134.270254,18.2140645 132.85432,17.3646008 132.248026,16.8381581 C132.045701,17.0408982 131.681925,17.6477554 131.6012,18.2140645 L130.832432,18.2140645 L130.832432,12.6307058 L131.641392,12.6307058 C131.964976,15.3010819 133.825412,16.8790469 136.212098,16.8790469 C137.506433,16.8790469 138.558251,16.1508864 138.558251,14.937172 C138.558251,13.8853089 137.628032,13.0757117 135.96924,12.3070032 L133.66362,11.2145922 C132.045701,10.4452022 130.832092,9.10984381 130.832092,7.32982023 C130.832092,5.38760467 132.652336,3.72888438 135.16028,3.72888438 C136.495148,3.72888438 137.627351,4.21443828 138.315392,4.78074748 C138.517377,4.61889619 138.719702,4.17354956 138.84062,3.6876549 L139.609387,3.6876549 L139.609387,8.46277935 L138.760235,8.46277935 C138.476843,6.56077102 137.425367,4.98280607 135.28188,4.98280607 C134.149336,4.98280607 133.097178,5.63021126 133.097178,6.64220777 C133.097178,7.69407083 133.946671,8.26038003 135.888514,9.15073253 L138.112727,10.2431436 C140.05457,11.1737034 140.822656,12.6715946 140.822656,13.8853089 C140.822656,16.434041 138.598102,18.2140645 135.888514,18.2140645 L135.888514,18.2140645 L135.888514,18.2140645 L135.888514,18.2140645 Z" id="Shape" fill="#464342"></path>
                    </g>
                    <text id="Taiwan-正體中文社團" font-family="PingFangTC-Regular, PingFang TC" font-size="11.3671875" font-weight="normal" fill="#10131A">
                        <tspan x="56.3221692" y="58.3125">Taiwan 正體中文社團</tspan>
                    </text>
                    <g id="wrap-logo">
                        <g id="bubble1" fill="#00749A">
                            <path d="M20.2459666,6.66414141 C13.4874988,6.66414141 12.0894734,14.0225102 12.0894734,20.8610714 L8.00778211,32.5024672 C8.00778211,39.3422742 18.2076411,44.7493294 24.9661088,44.7493294 L29.2969145,44.8877437 L37.4670544,53.0600911 C39.0352371,54.6282865 40.3168599,54.0843077 40.3168599,51.8544098 L40.3168599,44.6008053 C45.8154482,43.3851579 38.8537637,33.1666686 38.8537637,27.2375071 L32.9792629,23.9447493 C32.9792629,17.1057729 41.4062862,7.342106 34.6500748,7.342106 L20.2459666,6.66414141 Z" id="Shape" transform="translate(25.219677, 30.310301) rotate(-12.000000) translate(-25.219677, -30.310301) "></path>
                            <path d="M24.9247338,0 C11.1592572,0 0,11.2962838 0,25.2281317 C0,39.161897 11.1592572,50.4570707 24.9247338,50.4570707 C38.6897119,50.4570707 49.8489691,39.161796 49.8489691,25.2281317 C49.8489691,11.2962838 38.6897119,0 24.9247338,0 L24.9247338,0 Z" id="Shape"></path>
                        </g>
                        <g id="font-wp" transform="translate(5.181506, 5.712121)" fill="#FFFFFF">
                            <path d="M0,19.4588459 C0,27.1361372 4.41025938,33.7708198 10.805482,36.9148849 L1.65991233,11.5652825 C0.596109159,13.9774917 0,16.6469392 0,19.4588459 L0,19.4588459 L0,19.4588459 L0,19.4588459 Z" id="Path"></path>
                            <path d="M32.2963749,18.4163463 C32.2963749,16.0192687 31.4452595,14.3592142 30.7152629,13.0671174 C29.7433933,11.4694347 28.832448,10.1164422 28.832448,8.5187596 C28.832448,6.73580634 30.1691335,5.0761208 32.0519483,5.0761208 C32.1369504,5.0761208 32.2175747,5.08682369 32.3003879,5.0916215 C28.8893593,1.93021023 24.3448477,0 19.3534366,0 C12.6554167,0 6.76254554,3.47659282 3.33437061,8.74241306 C3.78418858,8.75606844 4.20810466,8.76566415 4.56817794,8.76566415 C6.57357093,8.76566415 9.67778938,8.51949774 9.67778938,8.51949774 C10.7113128,8.45786391 10.8331614,9.99354358 9.80073233,10.1171804 C9.80073233,10.1171804 8.76210149,10.2408172 7.60636476,10.302082 L14.5882114,31.3111103 L18.783959,18.5809493 L15.7968464,10.3013438 C14.7644174,10.240079 13.786346,10.1164422 13.786346,10.1164422 C12.7531874,10.0551774 12.8743063,8.45712578 13.9074649,8.5187596 C13.9074649,8.5187596 17.0737021,8.76492601 18.9576114,8.76492601 C20.9626395,8.76492601 24.0672228,8.5187596 24.0672228,8.5187596 C25.1014758,8.45712578 25.2229595,9.99280545 24.1901657,10.1164422 C24.1901657,10.1164422 23.149346,10.240079 21.9957981,10.3013438 L28.9243816,31.1513051 L30.8367465,24.6863925 C31.6656083,22.0036586 32.2963749,20.07677 32.2963749,18.4163463 L32.2963749,18.4163463 L32.2963749,18.4163463 L32.2963749,18.4163463 Z" id="Path"></path>
                            <path d="M19.5662382,21.2030178 L13.8138211,38.1132097 C15.5313743,38.6239955 17.3477927,38.9033779 19.2298779,38.9033779 C21.4625512,38.9033779 23.6036557,38.5129072 25.5966449,37.8039329 C25.5452059,37.7208932 25.4985094,37.6326869 25.4602038,37.5367298 L19.5662382,21.2030178 L19.5662382,21.2030178 L19.5662382,21.2030178 Z" id="Path"></path>
                            <path d="M36.2417073,10.1196221 C36.3241558,10.737437 36.370852,11.4006469 36.370852,12.1140497 C36.370852,14.0822736 36.0074955,16.2948187 34.9130476,19.0613303 L29.0566581,36.1907468 C34.7565417,32.828195 38.5903921,26.5810308 38.5903921,19.4255975 C38.5907568,16.0534501 37.7392762,12.8824431 36.2417073,10.1196221 L36.2417073,10.1196221 L36.2417073,10.1196221 L36.2417073,10.1196221 Z" id="Path"></path>
                        </g>
                    </g>
                </g>
            </g>
        </g>
    </g>
</svg>